# xmcd CD database file
#
# Track frame offsets:
#        150
#        18845
#        37879
#        54925
#        70604
#        86939
#        106791
#        122791
#        141435
#        161111
#
# Disc length: 2458 seconds
#
# Revision: 0
# Processed by: cddbd v1.5.2PL0 Copyright (c) Steve Scherf et al.
# Submitted via: CUERipper 2.1.5
#
DISCID=7e09980a
DTITLE=Austin Allsup - This Weary Land
DYEAR=2016
DGENRE=Country
TTITLE0=Fill It Up
TTITLE1=A Beautiful Life
TTITLE2=Still Swinging
TTITLE3=Backseat Driver
TTITLE4=Tongue Tied
TTITLE5=Missin' It
TTITLE6=Rock and Roll Man
TTITLE7=In This Deep
TTITLE8=The Mountain
TTITLE9=This Weary Land
EXTD=
EXTT0=
EXTT1=
EXTT2=
EXTT3=
EXTT4=
EXTT5=
EXTT6=
EXTT7=
EXTT8=
EXTT9=
PLAYORDER=
